<?xml version="1.0" standalone="no"?>
<!DOCTYPE svg PUBLIC "-//W3C//DTD SVG 20010904//EN"
 "http://www.w3.org/TR/2001/REC-SVG-20010904/DTD/svg10.dtd">
<svg version="1.0" xmlns="http://www.w3.org/2000/svg"
 width="83.000000pt" height="83.000000pt" viewBox="0 0 83.000000 83.000000"
 preserveAspectRatio="xMidYMid meet">

<g transform="translate(0.000000,83.000000) scale(0.100000,-0.100000)"
fill="#000000" stroke="none">
<path d="M612 648 c-29 -21 -246 -271 -266 -308 -5 -8 55 48 133 125 128 125
181 189 168 201 -2 2 -18 -6 -35 -18z"/>
<path d="M449 553 c-35 -43 -93 -112 -128 -153 -58 -66 -49 -60 77 59 78 73
142 137 142 141 0 4 -6 13 -14 19 -10 9 -26 -5 -77 -66z"/>
<path d="M335 498 c-144 -176 -145 -180 -9 -46 112 111 127 129 114 142 -13
12 -27 -1 -105 -96z"/>
<path d="M231 452 c-70 -84 -95 -119 -65 -91 212 200 210 197 194 213 -13 13
-28 -1 -129 -122z"/>
<path d="M470 423 c-151 -179 -150 -185 3 -34 105 104 134 138 125 148 -6 7
-13 13 -17 12 -3 0 -53 -57 -111 -126z"/>
<path d="M460 338 c-57 -68 -110 -132 -119 -143 -8 -11 44 38 117 110 73 71
131 134 129 139 -9 27 -33 7 -127 -106z"/>
<path d="M450 258 c-52 -62 -103 -124 -114 -138 -11 -14 29 23 89 81 61 59
120 115 132 125 17 13 20 21 11 31 -6 7 -14 13 -18 13 -3 0 -49 -51 -100 -112z"/>
</g>
</svg>
